<?xml version="1.0" standalone="no"?><!DOCTYPE svg PUBLIC "-//W3C//DTD SVG 1.1//EN" "http://www.w3.org/Graphics/SVG/1.1/DTD/svg11.dtd"><svg viewBox="0 0 24 24" width="48" height="48" xmlns="http://www.w3.org/2000/svg" fill="none"><path d="M12 2a1 1 0 0 1 1 1v10.586l2.293-2.293a1 1 0 0 1 1.414 1.414l-4 4a1 1 0 0 1-1.414 0l-4-4a1 1 0 1 1 1.414-1.414L11 13.586V3a1 1 0 0 1 1-1z" fill="#2ecc71"/><path d="M5 14a1 1 0 0 1 1 1v4a1 1 0 0 0 1 1h10a1 1 0 0 0 1-1v-4a1 1 0 1 1 2 0v4a3 3 0 0 1-3 3H7a3 3 0 0 1-3-3v-4a1 1 0 0 1 1-1z" fill="#2ecc71"/></svg>