<?xml version="1.0" standalone="no"?><!DOCTYPE svg PUBLIC "-//W3C//DTD SVG 1.1//EN" "http://www.w3.org/Graphics/SVG/1.1/DTD/svg11.dtd"><svg t="1751373290700" class="icon" viewBox="0 0 1024 1024" version="1.1" xmlns="http://www.w3.org/2000/svg" p-id="1112" xmlns:xlink="http://www.w3.org/1999/xlink" width="48" height="48"><path d="M0 0m227.555556 0l568.888888 0q227.555556 0 227.555556 227.555556l0 568.888888q0 227.555556-227.555556 227.555556l-568.888888 0q-227.555556 0-227.555556-227.555556l0-568.888888q0-227.555556 227.555556-227.555556Z" fill="#E4E9F2" p-id="1113"></path><path d="M512 512m-455.111111 0a455.111111 455.111111 0 1 0 910.222222 0 455.111111 455.111111 0 1 0-910.222222 0Z" fill="#E4E9F2" p-id="1114"></path><path d="M217.6 163.555556m64 0l460.8 0q64 0 64 64l0 570.311111q0 64-64 64l-460.8 0q-64 0-64-64l0-570.311111q0-64 64-64Z" fill="#007BEA" p-id="1115"></path><path d="M334.222222 376.888889h196.266667v25.6H334.222222zM334.222222 459.377778h355.555556v25.6h-355.555556zM334.222222 540.444444h274.488889v25.6H334.222222zM334.222222 622.933333H654.222222v25.6H334.222222zM334.222222 704h226.133334v25.6H334.222222z" fill="#FFFFFF" p-id="1116"></path><path d="M588.8 244.622222H436.622222v-96.711111c0-41.244444 32.711111-73.955556 73.955556-73.955555h5.688889c41.244444 0 73.955556 32.711111 73.955555 73.955555v96.711111z" fill="#FFAB24" p-id="1117"></path><path d="M348.444444 292.977778c0-54.044444 72.533333-98.133333 163.555556-98.133334s163.555556 44.088889 163.555556 98.133334" fill="#FFAB24" p-id="1118"></path><path d="M512 153.6m-29.866667 0a29.866667 29.866667 0 1 0 59.733334 0 29.866667 29.866667 0 1 0-59.733334 0Z" fill="#007BEA" p-id="1119"></path></svg>