<?xml version="1.0" standalone="no"?><!DOCTYPE svg PUBLIC "-//W3C//DTD SVG 1.1//EN" "http://www.w3.org/Graphics/SVG/1.1/DTD/svg11.dtd"><svg t="1751290584882" class="icon" viewBox="0 0 1024 1024" version="1.1" xmlns="http://www.w3.org/2000/svg" p-id="2005" xmlns:xlink="http://www.w3.org/1999/xlink" width="48" height="48"><path d="M192 152m40 0l560 0q40 0 40 40l0 720q0 40-40 40l-560 0q-40 0-40-40l0-720q0-40 40-40Z" fill="#FFECCD" p-id="2006"></path><path d="M192 886c0 22.091 17.909 40 40 40h530c22.091 0 40-17.909 40-40V192c0-22.091-17.909-40-40-40h30c22.091 0 40 17.909 40 40v720c0 22.091-17.909 40-40 40H232c-22.091 0-40-17.909-40-40z" fill="#F5C999" p-id="2007"></path><path d="M242 202m40 0l460 0q40 0 40 40l0 620q0 40-40 40l-460 0q-40 0-40-40l0-620q0-40 40-40Z" fill="#FBFBFB" p-id="2008"></path><path d="M283 202c-22.091 0-40 17.909-40 40v581c0 22.091 17.909 40 40 40h414c22.091 0 40-17.909 40-40V242c0-22.091-17.909-40-40-40h45c22.091 0 40 17.909 40 40v620c0 22.091-17.909 40-40 40H282c-22.091 0-40-17.909-40-40V242c0-22.091 17.909-40 40-40z" fill="#000000" fill-opacity=".05" p-id="2009"></path><path d="M402 404m-78 0a78 78 0 1 0 156 0 78 78 0 1 0-156 0Z" fill="#C2F1FF" p-id="2010"></path><path d="M402 326c43.078 0 78 34.922 78 78s-34.922 78-78 78-78-34.922-78-78c0-2.289 0.099-4.554 0.292-6.793C327.418 430.194 355.195 456 389 456c35.899 0 65-29.101 65-65 0-33.805-25.806-61.582-58.792-64.707A78.633 78.633 0 0 1 402 326z" fill="#9CD3E2" p-id="2011"></path><path d="M542 322m10 0l91.873 0q10 0 10 10l0 0q0 10-10 10l-91.873 0q-10 0-10-10l0 0q0-10 10-10Z" fill="#202020" p-id="2012"></path><path d="M542 392m10 0l140 0q10 0 10 10l0 0q0 10-10 10l-140 0q-10 0-10-10l0 0q0-10 10-10Z" fill="#202020" p-id="2013"></path><path d="M542 462m10 0l140 0q10 0 10 10l0 0q0 10-10 10l-140 0q-10 0-10-10l0 0q0-10 10-10Z" fill="#202020" p-id="2014"></path><path d="M322 559m10 0l360 0q10 0 10 10l0 0q0 10-10 10l-360 0q-10 0-10-10l0 0q0-10 10-10Z" fill="#202020" p-id="2015"></path><path d="M322 629m10 0l360 0q10 0 10 10l0 0q0 10-10 10l-360 0q-10 0-10-10l0 0q0-10 10-10Z" fill="#202020" p-id="2016"></path><path d="M322 699m24 0l112 0q24 0 24 24l0 82q0 24-24 24l-112 0q-24 0-24-24l0-82q0-24 24-24Z" fill="#C2F1FF" p-id="2017"></path><path d="M322 781c0 13.255 10.745 24 24 24h82.462c13.254 0 24-10.745 24-24v-58c0-13.255-10.746-24-24-24H458c13.255 0 24 10.745 24 24v82c0 13.255-10.745 24-24 24H346c-13.255 0-24-10.745-24-24z" fill="#9CD3E2" p-id="2018"></path><path d="M542 699m24 0l112 0q24 0 24 24l0 82q0 24-24 24l-112 0q-24 0-24-24l0-82q0-24 24-24Z" fill="#C2F1FF" p-id="2019"></path><path d="M542 781c0 13.255 10.745 24 24 24h82.462c13.254 0 24-10.745 24-24v-58c0-13.255-10.746-24-24-24H678c13.255 0 24 10.745 24 24v82c0 13.255-10.745 24-24 24H566c-13.255 0-24-10.745-24-24z" fill="#9CD3E2" p-id="2020"></path><path d="M792 144H232C205.49 144 184 165.49 184 192v720c0 26.51 21.49 48 48 48h560c26.51 0 48-21.49 48-48V192c0-26.51-21.49-48-48-48zM232 160h560c17.673 0 32 14.327 32 32v720c0 17.673-14.327 32-32 32H232c-17.673 0-32-14.327-32-32V192c0-17.673 14.327-32 32-32z" fill="#202020" p-id="2021"></path><path d="M742 202c22.091 0 40 17.909 40 40v620c0 22.091-17.909 40-40 40H282c-22.091 0-40-17.909-40-40V242c0-22.091 17.909-40 40-40h460z m0 16H282c-13.122 0-23.785 10.531-24 23.603V862c0 13.122 10.531 23.785 23.603 24H742c13.122 0 23.785-10.531 24-23.603V242c0-13.122-10.531-23.785-23.603-24H742z" fill="#202020" p-id="2022"></path><path d="M402 316c-48.601 0-88 39.399-88 88s39.399 88 88 88 88-39.399 88-88-39.399-88-88-88z m0 16c39.765 0 72 32.235 72 72s-32.235 72-72 72-72-32.235-72-72 32.235-72 72-72zM458 691H346c-17.673 0-32 14.327-32 32v82c0 17.673 14.327 32 32 32h112c17.673 0 32-14.327 32-32v-82c0-17.673-14.327-32-32-32z m-112 16h112c8.837 0 16 7.163 16 16v82c0 8.837-7.163 16-16 16H346c-8.837 0-16-7.163-16-16v-82c0-8.837 7.163-16 16-16zM678 691H566c-17.673 0-32 14.327-32 32v82c0 17.673 14.327 32 32 32h112c17.673 0 32-14.327 32-32v-82c0-17.673-14.327-32-32-32z m-112 16h112c8.837 0 16 7.163 16 16v82c0 8.837-7.163 16-16 16H566c-8.837 0-16-7.163-16-16v-82c0-8.837 7.163-16 16-16z" fill="#202020" p-id="2023"></path><path d="M465 91C465 80.507 473.507 72 484 72h56c10.493 0 19 8.507 19 19v30h39c13.255 0 24 10.745 24 24v80c0 13.255-10.745 24-24 24H426c-13.255 0-24-10.745-24-24V145c0-13.255 10.745-24 24-24h39V91z" fill="#C2F1FF" p-id="2024"></path><path d="M512 108m-16 0a16 16 0 1 0 32 0 16 16 0 1 0-32 0Z" fill="#202020" p-id="2025"></path><path d="M567 143c17.673 0 32 14.327 32 32a8 8 0 0 1-15.996 0.25L583 175c0-8.731-6.994-15.83-15.685-15.997L567 159H458c-8.731 0-15.83 6.994-15.997 15.685L442 175a8 8 0 1 1-16 0c0-17.496 14.042-31.713 31.47-31.996L458 143h109z" fill="#202020" p-id="2026"></path><path d="M484 64l-0.446 0.004C468.848 64.242 457 76.237 457 91v22H426C408.327 113 394 127.327 394 145v80c0 17.673 14.327 32 32 32h172c17.673 0 32-14.327 32-32V145l-0.004-0.53C629.713 127.043 615.496 113 598 113h-31V91c0-14.912-12.088-27-27-27H484z m0 16h56c6.075 0 11 4.925 11 11v38h47c8.837 0 16 7.163 16 16v80c0 8.837-7.163 16-16 16H426c-8.837 0-16-7.163-16-16V145c0-8.837 7.163-16 16-16h47V91c0-6.075 4.925-11 11-11z" fill="#202020" p-id="2027"></path></svg>