<?xml version="1.0" standalone="no"?><!DOCTYPE svg PUBLIC "-//W3C//DTD SVG 1.1//EN" "http://www.w3.org/Graphics/SVG/1.1/DTD/svg11.dtd"><svg t="1751300738394" class="icon" viewBox="0 0 1024 1024" version="1.1" xmlns="http://www.w3.org/2000/svg" p-id="110495" xmlns:xlink="http://www.w3.org/1999/xlink" width="48" height="48"><path d="M61.44 512c0 248.832 201.728 450.56 450.56 450.56s450.56-201.728 450.56-450.56S760.832 61.44 512 61.44 61.44 263.168 61.44 512z" fill="#70C2FF" p-id="110496"></path><path d="M389.98016 760.0128h244.03968v31.92832H389.98016z" fill="#FFFFFF" p-id="110497"></path><path d="M389.98016 760.0128h62.5664v31.92832h-62.5664z" fill="#E9F4FC" p-id="110498"></path><path d="M756.71552 889.91744v-36.98688a62.5664 62.5664 0 0 0-62.5664-62.5664H329.87136a62.5664 62.5664 0 0 0-62.58688 62.5664v32.29696a300.032 300.032 0 0 0 42.00448 29.14304A448.55296 448.55296 0 0 0 512 962.56a448.2048 448.2048 0 0 0 242.44224-70.88128c0.73728-0.6144 1.51552-1.14688 2.2528-1.76128z" fill="#D7E9F8" p-id="110499"></path><path d="M267.28448 852.93056v36.98688c0.83968 0.69632 1.69984 1.26976 2.51904 1.9456 13.78304 8.8064 28.01664 16.85504 42.65984 24.12544 3.64544 1.69984 7.31136 3.42016 11.0592 5.24288 2.90816 1.35168 5.8368 2.68288 8.8064 3.9936v-72.2944a62.58688 62.58688 0 0 1 62.58688-62.5664h-65.06496a62.5664 62.5664 0 0 0-62.5664 62.5664z" fill="#C3DEF4" p-id="110500"></path><path d="M517.91872 911.62624l44.76928-51.9168a7.82336 7.82336 0 0 0-5.91872-12.9024h-89.53856a7.80288 7.80288 0 0 0-5.91872 12.9024l44.76928 51.89632a7.7824 7.7824 0 0 0 11.83744 0.02048z" fill="#FFFFFF" p-id="110501"></path><path d="M493.568 859.70944a7.82336 7.82336 0 0 1 5.9392-12.9024h-32.27648a7.80288 7.80288 0 0 0-5.91872 12.9024l44.76928 51.89632a7.82336 7.82336 0 0 0 11.83744 0l10.19904-11.85792-34.54976-40.0384z m-228.90496-171.35616v-67.8912c0-12.4928 1.2288-24.6784 3.60448-36.49536h-11.44832a41.84064 41.84064 0 0 0-41.82016 41.84064v35.55328a41.82016 41.82016 0 0 0 41.82016 41.82016H266.24a71.49568 71.49568 0 0 1-1.55648-14.82752z m502.51776-104.38656h-11.4688c2.37568 11.81696 3.584 24.00256 3.584 36.49536v67.8912c0 5.07904-0.53248 10.0352-1.55648 14.82752h9.40032a41.82016 41.82016 0 0 0 41.84064-41.84064v-35.5328a41.7792 41.7792 0 0 0-41.79968-41.84064z" fill="#E9F4FC" p-id="110502"></path><path d="M687.69792 761.56928H336.2816a73.216 73.216 0 0 1-73.19552-73.216v-67.8912a188.23168 188.23168 0 0 1 188.23168-188.25216h121.32352a188.23168 188.23168 0 0 1 188.2112 188.25216v67.8912c0 40.42752-32.768 73.19552-73.17504 73.216z" fill="#D7E9F8" p-id="110503"></path><path d="M344.59648 688.3328v-24.30976a101.33504 101.33504 0 0 1-18.7392-58.81856c0-35.57376 18.55488-68.56704 48.9472-87.04a188.06784 188.06784 0 0 1 158.04416-85.95456h-81.5104a188.23168 188.23168 0 0 0-188.2112 188.23168v67.91168c0 40.42752 32.768 73.19552 73.19552 73.19552h81.5104a73.17504 73.17504 0 0 1-73.23648-73.19552z" fill="#C3DEF4" p-id="110504"></path><path d="M427.76576 707.13344a102.03136 102.03136 0 0 1-101.92896-101.92896 102.03136 102.03136 0 0 1 101.92896-101.92896h168.448a102.05184 102.05184 0 0 1 101.92896 101.92896 102.05184 102.05184 0 0 1-101.92896 101.92896h-168.448z" fill="#166993" p-id="110505"></path><path d="M391.53664 605.20448a102.05184 102.05184 0 0 1 101.92896-101.92896h-65.69984a102.03136 102.03136 0 0 0-101.92896 101.92896 102.03136 102.03136 0 0 0 101.92896 101.92896h65.69984a102.03136 102.03136 0 0 1-101.92896-101.92896z" fill="#085B84" p-id="110506"></path><path d="M566.3744 654.35648h-108.7488a10.46528 10.46528 0 0 1-10.46528-10.4448v-16.73216a10.4448 10.4448 0 0 1 10.4448-10.4448h108.76928a10.4448 10.4448 0 0 1 10.4448 10.4448v16.73216c0 5.77536-4.66944 10.4448-10.4448 10.4448zM428.8512 604.18048h-27.17696a10.4448 10.4448 0 0 1-10.4448-10.46528v-27.19744a10.4448 10.4448 0 0 1 10.4448-10.4448h27.17696a10.4448 10.4448 0 0 1 10.4448 10.4448v27.19744c0 5.77536-4.64896 10.4448-10.4448 10.46528z m193.47456 0H595.1488a10.48576 10.48576 0 0 1-10.48576-10.46528v-27.19744c0-5.77536 4.7104-10.4448 10.48576-10.4448h27.17696a10.4448 10.4448 0 0 1 10.4448 10.4448v27.19744c0 5.77536-4.66944 10.4448-10.4448 10.46528z" fill="#FFFFFF" p-id="110507"></path><path d="M675.67616 292.98688h176.37376a17.6128 17.6128 0 0 1 17.6128 17.63328v176.39424a17.6128 17.6128 0 0 1-17.6128 17.6128h-108.72832a4.7104 4.7104 0 0 0-3.31776 1.39264l-34.0992 34.0992a5.30432 5.30432 0 0 1-9.03168-3.74784v-27.0336a4.7104 4.7104 0 0 0-4.7104-4.7104h-16.4864a17.63328 17.63328 0 0 1-17.63328-17.63328v-176.37376c0-9.74848 7.8848-17.63328 17.63328-17.63328z" fill="#EE7629" p-id="110508"></path><path d="M806.11328 415.00672h15.64672c4.3008 0 7.80288-3.50208 7.80288-7.82336v-15.64672c0-4.3008-3.4816-7.80288-7.80288-7.80288h-15.64672a7.82336 7.82336 0 0 0-7.82336 7.80288v15.64672c0 4.3008 3.4816 7.82336 7.82336 7.82336z m-50.0736 0h15.64672c4.32128 0 7.82336-3.4816 7.84384-7.82336v-15.64672a7.82336 7.82336 0 0 0-7.84384-7.80288h-15.64672c-4.3008 0-7.82336 3.4816-7.82336 7.80288v15.64672c0 4.3008 3.52256 7.82336 7.82336 7.82336z m-50.05312 0h15.6672a7.80288 7.80288 0 0 0 7.7824-7.82336v-15.64672c0-4.3008-3.4816-7.80288-7.7824-7.80288h-15.6672a7.82336 7.82336 0 0 0-7.82336 7.80288v15.64672a7.80288 7.80288 0 0 0 7.82336 7.82336z" fill="#FFFFFF" p-id="110509"></path><path d="M348.30336 292.98688H171.9296a17.63328 17.63328 0 0 0-17.63328 17.63328v176.39424c0 9.728 7.8848 17.6128 17.6128 17.6128h108.7488a4.7104 4.7104 0 0 1 3.31776 1.39264l34.0992 34.0992a5.30432 5.30432 0 0 0 9.03168-3.74784v-27.0336a4.7104 4.7104 0 0 1 4.7104-4.7104h16.4864a17.63328 17.63328 0 0 0 17.65376-17.63328v-176.37376a17.63328 17.63328 0 0 0-17.65376-17.63328z" fill="#87BE30" p-id="110510"></path><path d="M203.34592 487.0144v-176.39424c0-9.74848 7.8848-17.63328 17.63328-17.63328H171.9296a17.63328 17.63328 0 0 0-17.63328 17.63328v176.39424c0 9.728 7.8848 17.6128 17.6128 17.6128h49.07008a17.63328 17.63328 0 0 1-17.63328-17.6128z" fill="#7EB12C" p-id="110511"></path><path d="M283.7504 359.46496H201.44128a11.73504 11.73504 0 1 1 0-23.47008h82.3296a11.73504 11.73504 0 1 1 0 23.47008z m35.0208 48.49664H201.46176a11.73504 11.73504 0 1 1 0-23.47008h117.3504a11.73504 11.73504 0 1 1 0 23.47008z m0 48.49664H201.46176a11.73504 11.73504 0 1 1 0-23.47008h117.3504a11.73504 11.73504 0 1 1 0 23.47008z" fill="#FFFFFF" p-id="110512"></path><path d="M695.05024 161.56672H328.92928a15.64672 15.64672 0 0 0-15.62624 15.64672v164.2496c0 8.64256 7.00416 15.64672 15.64672 15.64672h148.31616a4.7104 4.7104 0 0 1 4.03456 2.33472l22.03648 37.60128a7.82336 7.82336 0 0 0 13.5168 0l22.016-37.60128a4.68992 4.68992 0 0 1 4.03456-2.33472h152.10496a15.64672 15.64672 0 0 0 15.64672-15.62624V177.21344a15.64672 15.64672 0 0 0-15.64672-15.64672z" fill="#F3CD22" p-id="110513"></path><path d="M360.2432 341.48352V177.21344c0-8.64256 7.00416-15.64672 15.64672-15.64672h-46.91968a15.64672 15.64672 0 0 0-15.64672 15.64672v164.2496c0 8.64256 7.00416 15.64672 15.64672 15.64672h46.91968a15.64672 15.64672 0 0 1-15.64672-15.62624z" fill="#EFC01B" p-id="110514"></path><path d="M389.98016 217.088h-7.04512a11.73504 11.73504 0 1 1 0-23.47008h7.04512a11.73504 11.73504 0 1 1 0 23.47008zM641.04448 217.088H430.63296a11.73504 11.73504 0 1 1 0-23.47008h210.41152a11.73504 11.73504 0 1 1 0 23.47008zM641.04448 267.93984H382.93504a11.73504 11.73504 0 0 1 0-23.47008h258.12992a11.73504 11.73504 0 1 1 0 23.47008zM505.73312 318.79168h-122.79808a11.73504 11.73504 0 1 1 0-23.47008h122.79808a11.73504 11.73504 0 0 1 0 23.47008z" fill="#FFFFFF" p-id="110515"></path></svg>