<?xml version="1.0" standalone="no"?><!DOCTYPE svg PUBLIC "-//W3C//DTD SVG 1.1//EN" "http://www.w3.org/Graphics/SVG/1.1/DTD/svg11.dtd"><svg t="1751300902476" class="icon" viewBox="0 0 1024 1024" version="1.1" xmlns="http://www.w3.org/2000/svg" p-id="130441" xmlns:xlink="http://www.w3.org/1999/xlink" width="48" height="48"><path d="M684.8 76.8H588.8C588.8 32 550.4 0 512 0H358.4C320 0 288 32 288 76.8H185.6c-57.6 0-102.4 44.8-102.4 96v601.6c0 57.6 44.8 102.4 102.4 102.4H512v-25.6c0-147.2 121.6-268.8 268.8-268.8h12.8V172.8c-6.4-51.2-51.2-96-108.8-96zM358.4 51.2H512c12.8 0 25.6 12.8 25.6 25.6s-12.8 25.6-25.6 25.6H358.4c-12.8 0-25.6-12.8-25.6-25.6s12.8-25.6 25.6-25.6zM288 332.8h300.8c12.8 0 25.6 12.8 25.6 25.6s-12.8 25.6-25.6 25.6H288c-19.2 0-25.6-12.8-25.6-25.6 0-19.2 6.4-25.6 25.6-25.6z m198.4 288H288c-12.8 0-25.6-12.8-25.6-25.6s6.4-19.2 25.6-19.2h198.4c12.8 0 25.6 6.4 25.6 25.6 0 12.8-12.8 19.2-25.6 19.2z m102.4-121.6H288c-12.8 0-25.6-12.8-25.6-25.6s12.8-25.6 25.6-25.6h300.8c12.8 0 25.6 12.8 25.6 25.6 0 19.2-12.8 25.6-25.6 25.6zM620.8 915.2v70.4c0 19.2 19.2 38.4 38.4 38.4h76.8c19.2 0 38.4-19.2 38.4-38.4v-108.8h-115.2c-19.2 0-38.4 19.2-38.4 38.4z" fill="#070001" p-id="130442"></path><path d="M729.6 697.6h-76.8c-19.2 0-38.4 19.2-38.4 38.4v70.4c0 19.2 19.2 38.4 38.4 38.4H768v-108.8c6.4-19.2-12.8-38.4-38.4-38.4zM915.2 697.6h-70.4c-19.2 0-38.4 19.2-38.4 38.4v108.8h115.2c19.2 0 38.4-19.2 38.4-38.4v-70.4c-6.4-19.2-19.2-38.4-44.8-38.4zM915.2 876.8h-115.2v108.8c0 19.2 19.2 38.4 38.4 38.4h76.8c19.2 0 38.4-19.2 38.4-38.4v-70.4c0-19.2-12.8-38.4-38.4-38.4z" fill="#070001" p-id="130443"></path></svg>