<?xml version="1.0" standalone="no"?><!DOCTYPE svg PUBLIC "-//W3C//DTD SVG 1.1//EN" "http://www.w3.org/Graphics/SVG/1.1/DTD/svg11.dtd"><svg t="1751301230706" class="icon" viewBox="0 0 1025 1024" version="1.1" xmlns="http://www.w3.org/2000/svg" p-id="158769" xmlns:xlink="http://www.w3.org/1999/xlink" width="48.046875" height="48"><path d="M976.384 912.384H50.688c-26.624 0-49.152 22.528-49.152 49.152s22.528 49.152 49.152 49.152h924.672c26.624 0 49.152-22.528 49.152-49.152s-20.992-49.152-48.128-49.152zM939.008 12.8H88.064C39.936 12.8 1.536 51.2 1.536 99.328v604.672c0 47.104 38.4 86.528 86.528 86.528h850.944c48.128 0 86.528-38.4 86.528-86.528V99.328c0-48.128-38.4-86.528-86.528-86.528z m-198.144 438.272h-180.224v180.736c0 27.136-22.528 48.64-49.152 48.64-26.624 0-49.152-22.528-49.152-49.152V451.072H282.112c-26.624 0-49.152-22.528-49.152-49.152 0-26.624 22.528-49.152 49.152-49.152h180.736V171.52c0-26.624 22.528-49.152 49.152-49.152 26.624 0 49.152 22.528 49.152 49.152v180.736H742.4c27.136 0 48.64 22.528 48.64 49.152 0 27.136-23.552 49.664-50.176 49.664z" p-id="158770"></path></svg>